<svg width="14" height="11" viewBox="0 0 14 11" fill="none" xmlns="http://www.w3.org/2000/svg">
<path d="M8.56064 9.84678C8.39141 9.67755 8.31018 9.47307 8.31695 9.23332C8.32372 8.99358 8.412 8.78909 8.58179 8.61986L10.9722 6.22948H1.53756C1.29782 6.22948 1.09672 6.14825 0.934255 5.98578C0.771794 5.82332 0.690845 5.6225 0.691409 5.38332C0.691409 5.14358 0.77264 4.94248 0.935102 4.78001C1.09756 4.61755 1.29838 4.5366 1.53756 4.53717H10.9722L8.56064 2.12563C8.39141 1.9564 8.30679 1.7553 8.30679 1.52232C8.30679 1.28935 8.39141 1.08853 8.56064 0.919862C8.72987 0.750631 8.93097 0.666016 9.16395 0.666016C9.39692 0.666016 9.59774 0.750631 9.76641 0.919862L13.6376 4.79102C13.7222 4.87563 13.7823 4.9673 13.8178 5.06602C13.8533 5.16473 13.8708 5.2705 13.8703 5.38332C13.8703 5.49614 13.8525 5.60191 13.8169 5.70063C13.7814 5.79935 13.7216 5.89102 13.6376 5.97563L9.74525 9.86794C9.59013 10.0231 9.39636 10.1006 9.16395 10.1006C8.93154 10.1006 8.73043 10.016 8.56064 9.84678Z" fill="black"/>
</svg>
